<?xml version="1.0" encoding="utf-8"?>
<!-- Generator: Adobe Illustrator 21.0.0, SVG Export Plug-In . SVG Version: 6.00 Build 0)  -->
<svg version="1.1" id="Layer_1" xmlns="http://www.w3.org/2000/svg" xmlns:xlink="http://www.w3.org/1999/xlink" x="0px" y="0px"
	 viewBox="0 0 595.3 420.9" style="enable-background:new 0 0 595.3 420.9;" xml:space="preserve">
<style type="text/css">
	.st0{fill:#223B80;}
	.st1{fill:#F7931E;}
	.st2{fill:#FFFFFF;}
</style>
<g>
	<path class="st1" d="M387.6,81.9c-17.2-34.3-42.8-51.4-77.1-51.4h-25.7c-34.2,0-59.9,17.1-77.1,51.4L53.6,390.2h115.6l29.8-59.7
		l98.7-197.2l128.5,256.9h115.6L387.6,81.9z"/>
	<polygon class="st0" points="209.3,390.4 299.1,216.4 386,390.4 	"/>
	<g>
		<path class="st2" d="M295.5,328.5h-24.9c-0.1,0-0.1-0.1-0.1-0.1v0c0-13.8,11.2-25,25-25h0c0.1,0,0.1,0.1,0.1,0.1v24.9
			C295.7,328.5,295.6,328.5,295.5,328.5z"/>
		<path class="st2" d="M327.6,328.5h-25.1v-25.1h1.2c13.2,0,24,10.7,24,24V328.5z"/>
		<rect x="270.5" y="337.1" class="st2" width="25.1" height="25.1"/>
		<rect x="302.5" y="337.1" class="st2" width="25.1" height="25.1"/>
	</g>
</g>
</svg>
